<svg xmlns="http://www.w3.org/2000/svg" viewBox="0 0 520 620"><g transform="translate(520 0) scale(-1 1)"><defs>
<linearGradient id="steel" x1="0" y1="0" x2="1" y2="1">
 <stop offset="0" stop-color="#f0f2f1"/><stop offset=".18" stop-color="#8e9699"/>
 <stop offset=".42" stop-color="#343a3d"/><stop offset=".62" stop-color="#b7bdbe"/>
 <stop offset=".82" stop-color="#4b5255"/><stop offset="1" stop-color="#d5d9d8"/>
</linearGradient>
<linearGradient id="darksteel" x1="0" y1="0" x2="0" y2="1">
 <stop stop-color="#71797c"/><stop offset=".5" stop-color="#1c2225"/><stop offset="1" stop-color="#565e61"/>
</linearGradient>
<radialGradient id="eye"><stop stop-color="#c8f5ff"/><stop offset=".4" stop-color="#4bc7ef"/><stop offset="1" stop-color="#08628b"/></radialGradient>
<filter id="shadow"><feDropShadow dx="0" dy="4" stdDeviation="4" flood-opacity=".65"/></filter>
</defs>
<g filter="url(#shadow)" stroke-linejoin="round">
<!-- longship-inspired curved serpent body -->
<path d="M126 596C95 516 91 430 114 352c20-68 57-117 111-154 34-23 68-34 98-52 31-19 44-42 35-65-11-29-51-46-87-32-27 11-39 35-25 55 11 17 37 20 55 7-7 31-40 55-77 52-59-5-94-57-78-107 18-58 90-89 154-72 77 20 123 85 105 148-15 52-55 79-111 107-50 25-82 61-100 108-31 80-23 168 3 249z" fill="url(#darksteel)" stroke="#171b1d" stroke-width="13"/>
<!-- overlapping carved plates -->
<path d="M137 535c31-20 61-21 92-2M126 475c33-23 67-24 100-2M127 412c34-25 70-26 106-1M143 347c32-26 66-29 103-8M177 281c29-26 59-34 94-24" fill="none" stroke="url(#steel)" stroke-width="18"/>
<path d="M133 535c31-20 61-21 92-2M122 475c33-23 67-24 100-2M123 412c34-25 70-26 106-1M139 347c32-26 66-29 103-8M173 281c29-26 59-34 94-24" fill="none" stroke="#252b2e" stroke-width="7"/>
<!-- head silhouette -->
<path d="M247 59l-49-31 17 51-42 3 35 29-27 25 57 5 35 32 42-14 37-31 71-8-48-27 30-30-63 8-31-28-44 16z" fill="url(#steel)" stroke="#171b1d" stroke-width="11"/>
<!-- snout/jaw -->
<path d="M319 102l102 18-70 25-51 3-30-24z" fill="url(#darksteel)" stroke="#1a1f21" stroke-width="9"/>
<path d="M350 143l54 17-68 31-61-18 27-25z" fill="#242a2d" stroke="#111517" stroke-width="8"/>
<!-- teeth -->
<path d="m344 145 10 27 13-23 11 18 10-19" fill="#d9dcda" stroke="#363b3d" stroke-width="3"/>
<!-- eye -->
<ellipse cx="314" cy="92" rx="10" ry="8" fill="url(#eye)" stroke="#101416" stroke-width="4"/>
<!-- engraved knot lines -->
<path d="M205 95c24-23 54-29 81-13-24 6-38 20-43 41 25-8 48-3 64 14M166 321c44 17 70 47 75 88-25-23-51-28-79-15 27 17 45 42 50 75M128 443c43 15 67 43 72 83" fill="none" stroke="#9aa3a6" stroke-width="6"/>
</g></g></svg>